<?xml version="1.0" standalone="no"?>
<!DOCTYPE svg PUBLIC "-//W3C//DTD SVG 20010904//EN"
 "http://www.w3.org/TR/2001/REC-SVG-20010904/DTD/svg10.dtd">
<svg version="1.0" xmlns="http://www.w3.org/2000/svg"
 width="1686.000000pt" height="1686.000000pt" viewBox="0 0 1686.000000 1686.000000"
 preserveAspectRatio="xMidYMid meet">
<metadata>
Created by potrace 1.14, written by Peter Selinger 2001-2017
</metadata>
<g transform="translate(0.000000,1686.000000) scale(0.100000,-0.100000)"
fill="#000000" stroke="none">
<path d="M8680 12834 c-476 -42 -806 -118 -1222 -283 -450 -178 -794 -352
-1082 -548 -252 -171 -556 -411 -743 -587 -80 -75 -81 -76 -134 -76 l-54 0
-179 640 -180 640 -1636 0 -1636 0 -907 -4287 c-499 -2359 -907 -4294 -907
-4300 0 -10 415 -13 2043 -13 l2043 0 659 3108 659 3107 75 71 c161 150 409
355 526 434 194 131 378 190 592 190 259 0 415 -91 516 -300 59 -122 77 -212
77 -382 0 -173 -10 -247 -75 -573 -30 -148 -59 -301 -65 -340 -9 -57 -349
-1689 -406 -1950 -51 -232 -704 -3341 -704 -3352 0 -11 315 -13 1873 -13
l1873 0 649 3100 650 3100 126 115 c182 166 402 348 495 411 100 66 203 115
320 150 118 35 343 45 444 20 167 -42 297 -147 369 -299 52 -108 71 -203 71
-346 0 -153 -14 -249 -85 -591 -291 -1402 -1165 -5636 -1165 -5647 0 -11 330
-13 1973 -13 l1973 0 403 1873 c222 1029 461 2135 531 2457 308 1403 367 1707
405 2089 17 177 20 507 5 631 -66 530 -312 958 -743 1291 -50 39 -99 74 -107
77 -8 3 -17 9 -20 13 -3 4 -40 28 -83 53 -297 176 -653 287 -1041 325 -139 14
-535 14 -686 1 -252 -23 -577 -90 -805 -165 -318 -106 -829 -337 -1130 -510
-307 -177 -737 -490 -1027 -749 l-97 -86 -56 0 -55 0 0 36 c0 59 -47 274 -81
369 -95 269 -250 501 -464 695 -185 167 -435 289 -728 354 -226 51 -300 58
-662 61 -187 1 -360 1 -385 -1z"/>
</g>
</svg>
